<?xml version="1.0" encoding="UTF-8"?>
<svg version="1.1" xmlns="http://www.w3.org/2000/svg" width="360" height="360">
<path d="M0 0 C6.28898347 4.91462747 11.25777649 10.45556035 15.94921875 16.89453125 C16.27921875 16.23453125 16.60921875 15.57453125 16.94921875 14.89453125 C36.50797077 17.94748366 51.77819319 24.48529219 64.94921875 39.89453125 C76.3648677 55.56152532 79.81608223 72.19420938 77.55859375 91.1796875 C73.73631377 108.9924923 62.86091084 123.71253885 47.94921875 133.89453125 C33.37811874 142.61346627 16.60080907 145.59729733 -0.1328125 142.16796875 C-6.97954965 140.34316123 -13.09645917 137.7380619 -19.05078125 133.89453125 C-19.06496094 134.71695313 -19.07914062 135.539375 -19.09375 136.38671875 C-19.49654783 145.81436515 -21.20078754 152.77593332 -27.73828125 159.76953125 C-35.55717518 164.78542547 -40.49529493 165.89453125 -50.05078125 165.89453125 C-50.38078125 148.73453125 -50.71078125 131.57453125 -51.05078125 113.89453125 C-54.02078125 113.23453125 -56.99078125 112.57453125 -60.05078125 111.89453125 C-77.14037319 105.38872655 -90.00432155 92.46621698 -97.76171875 75.9765625 C-104.23874881 60.49057245 -103.87376493 43.52646957 -98.05078125 27.89453125 C-90.59476751 10.26754226 -77.52907037 -0.88944897 -60.421875 -8.84375 C-39.95880653 -16.50258096 -17.69443839 -12.21165466 0 0 Z M-62.05078125 25.89453125 C-70.1837289 34.45552877 -72.57053636 41.8457361 -72.46850586 53.53515625 C-72.08838064 64.40268597 -67.90880026 71.46045161 -60.05078125 78.89453125 C-57.09470857 81.34800544 -55.02615466 82.89453125 -51.05078125 82.89453125 C-51.05078125 90.15453125 -51.05078125 97.41453125 -51.05078125 104.89453125 C-50.72078125 104.89453125 -50.39078125 104.89453125 -50.05078125 104.89453125 C-50.03096191 104.08411377 -50.01114258 103.27369629 -49.99072266 102.4387207 C-49.91154721 99.36509491 -49.82483621 96.29178948 -49.73339844 93.21850586 C-49.6773288 91.2610577 -49.62956203 89.30337724 -49.58203125 87.34570312 C-48.9564154 66.85678419 -44.96371907 49.33850642 -30.421875 34.1484375 C-26.4667691 30.46447149 -23.18093203 27.71074235 -18.05078125 25.89453125 C-17.39078125 25.56453125 -16.73078125 25.23453125 -16.05078125 24.89453125 C-17.27655727 24.09762476 -18.5065913 23.30726641 -19.73828125 22.51953125 C-20.76501953 21.85824219 -20.76501953 21.85824219 -21.8125 21.18359375 C-34.6797571 13.77313154 -51.0656321 16.19555119 -62.05078125 25.89453125 Z M16.94921875 18.89453125 C17.60921875 20.54453125 18.26921875 22.19453125 18.94921875 23.89453125 C19.27921875 23.23453125 19.60921875 22.57453125 19.94921875 21.89453125 C18.95921875 20.90453125 17.96921875 19.91453125 16.94921875 18.89453125 Z M19.94921875 23.89453125 C20.27921875 25.54453125 20.60921875 27.19453125 20.94921875 28.89453125 C21.27921875 27.90453125 21.60921875 26.91453125 21.94921875 25.89453125 C21.28921875 25.23453125 20.62921875 24.57453125 19.94921875 23.89453125 Z M-13.05078125 28.89453125 C-12.39078125 30.21453125 -11.73078125 31.53453125 -11.05078125 32.89453125 C-11.05078125 31.90453125 -11.05078125 30.91453125 -11.05078125 29.89453125 C-11.71078125 29.56453125 -12.37078125 29.23453125 -13.05078125 28.89453125 Z M21.94921875 28.89453125 C22.94921875 31.89453125 22.94921875 31.89453125 22.94921875 31.89453125 Z M22.94921875 31.89453125 C23.94921875 34.89453125 23.94921875 34.89453125 23.94921875 34.89453125 Z M-10.05078125 32.89453125 C-8.78103153 37.30975234 -8.78103153 37.30975234 -6.05078125 40.89453125 C-6.54909849 37.20698368 -7.15145768 35.28962463 -10.05078125 32.89453125 Z M23.94921875 34.89453125 C24.94921875 38.89453125 24.94921875 38.89453125 24.94921875 38.89453125 Z M24.94921875 39.89453125 C24.94921875 41.87453125 24.94921875 43.85453125 24.94921875 45.89453125 C25.27921875 45.89453125 25.60921875 45.89453125 25.94921875 45.89453125 C25.94921875 43.91453125 25.94921875 41.93453125 25.94921875 39.89453125 C25.61921875 39.89453125 25.28921875 39.89453125 24.94921875 39.89453125 Z M-6.05078125 40.89453125 C-5.05078125 44.89453125 -5.05078125 44.89453125 -5.05078125 44.89453125 Z M-5.05078125 44.89453125 C-5.27765625 45.96703125 -5.50453125 47.03953125 -5.73828125 48.14453125 C-7.26024457 52.49299789 -8.53413178 53.09719644 -12.05078125 55.89453125 C-19.08736954 65.71463481 -20.37270665 74.00117624 -20.05078125 85.89453125 C-19.72078125 85.89453125 -19.39078125 85.89453125 -19.05078125 85.89453125 C-18.82390625 84.82203125 -18.59703125 83.74953125 -18.36328125 82.64453125 C-16.84131793 78.29606461 -15.56743072 77.69186606 -12.05078125 74.89453125 C-5.01419296 65.07442769 -3.72885585 56.78788626 -4.05078125 44.89453125 C-4.38078125 44.89453125 -4.71078125 44.89453125 -5.05078125 44.89453125 Z M25.94921875 45.89453125 C25.86285156 47.01988281 25.77648437 48.14523438 25.6875 49.3046875 C23.92877445 69.49574165 17.68301766 85.4731097 2.94921875 99.89453125 C0.68110431 101.75981455 -1.56894995 103.30615922 -4.05078125 104.89453125 C-5.04078125 105.55453125 -6.03078125 106.21453125 -7.05078125 106.89453125 C-5.99890625 107.51328125 -4.94703125 108.13203125 -3.86328125 108.76953125 C-2.97576172 109.29160156 -2.97576172 109.29160156 -2.0703125 109.82421875 C5.99981041 114.10122779 15.90941055 115.19592765 24.765625 112.7421875 C34.41682303 108.99565803 41.82889128 102.81090018 46.38671875 93.45703125 C49.4346157 84.92028093 49.4442117 73.95165397 46.44921875 65.39453125 C42.68250917 57.59491352 36.79882897 51.50535195 28.94921875 47.89453125 C28.28921875 47.89453125 27.62921875 47.89453125 26.94921875 47.89453125 C26.45421875 46.90453125 26.45421875 46.90453125 25.94921875 45.89453125 Z M-19.05078125 85.89453125 C-18.05078125 89.89453125 -18.05078125 89.89453125 -18.05078125 89.89453125 Z M-18.05078125 89.89453125 C-17.55246401 93.58207882 -16.95010482 95.49943787 -14.05078125 97.89453125 C-15.32053097 93.47931016 -15.32053097 93.47931016 -18.05078125 89.89453125 Z M-14.05078125 97.89453125 C-13.39078125 99.21453125 -12.73078125 100.53453125 -12.05078125 101.89453125 C-12.05078125 100.90453125 -12.05078125 99.91453125 -12.05078125 98.89453125 C-12.71078125 98.56453125 -13.37078125 98.23453125 -14.05078125 97.89453125 Z " fill="#090A0B" transform="translate(192.05078125,103.10546875)"/>
<path d="M0 0 C0.99 0.33 1.98 0.66 3 1 C3 2.98 3 4.96 3 7 C2.34 7 1.68 7 1 7 C-0.04957428 17.88427121 -0.21381527 28.71885679 -0.31640625 39.64453125 C-0.33702533 41.50925606 -0.3580229 43.37397672 -0.37937927 45.23869324 C-0.43408926 50.10304361 -0.48371971 54.96743249 -0.53222656 59.83184814 C-0.58281902 64.81306308 -0.63830632 69.79422335 -0.69335938 74.77539062 C-0.80031443 84.51688018 -0.90189355 94.25841758 -1 104 C-1.66 104 -2.32 104 -3 104 C-3.33 87.5 -3.66 71 -4 54 C-4.33 54 -4.66 54 -5 54 C-5 46.74 -5 39.48 -5 32 C-4.67 32 -4.34 32 -4 32 C-3.9498877 31.2793335 -3.89977539 30.55866699 -3.84814453 29.81616211 C-3.61476689 26.52267969 -3.36998256 23.23013871 -3.125 19.9375 C-3.04636719 18.80376953 -2.96773437 17.67003906 -2.88671875 16.50195312 C-2.45004204 10.74117962 -1.88977144 5.47080891 0 0 Z " fill="#1F2225" transform="translate(145,163)"/>
<path d="M0 0 C0.66 0.33 1.32 0.66 2 1 C2 3 2 3 0.75 4.5625 C-1.17692483 6.14533111 -2.56795851 6.5806825 -5 7 C-3.70700306 4.11562221 -2.34058637 2.12780579 0 0 Z M-6 7 C-5.34 7.66 -4.68 8.32 -4 9 C-4.375 12.625 -4.375 12.625 -5 16 C-5.66 16 -6.32 16 -7 16 C-7.33 16.99 -7.66 17.98 -8 19 C-8.66 19 -9.32 19 -10 19 C-10.144375 20.051875 -10.28875 21.10375 -10.4375 22.1875 C-10.73870869 24.22902559 -11.06014911 26.27067098 -11.5078125 28.28515625 C-12.33024899 32.8216115 -12.39687056 37.41666422 -12.62109375 42.015625 C-12.74613281 43.00046875 -12.87117188 43.9853125 -13 45 C-13.99 45.495 -13.99 45.495 -15 46 C-18.59214143 38.81571713 -15.33692757 28.88058717 -13.2890625 21.68359375 C-11.44846911 16.42395869 -8.94304782 11.71868667 -6 7 Z " fill="#0C0D0E" transform="translate(106,113)"/>
<path d="M0 0 C0.99 0.33 1.98 0.66 3 1 C3 2.98 3 4.96 3 7 C2.34 7 1.68 7 1 7 C0.29753257 15.9975615 -0.36563285 24.99738533 -1 34 C-1.66 33.67 -2.32 33.34 -3 33 C-3.48593926 10.45781777 -3.48593926 10.45781777 0 0 Z " fill="#2D2E2E" transform="translate(145,163)"/>
<path d="M0 0 C0.99 0.33 1.98 0.66 3 1 C3 1.99 3 2.98 3 4 C3.66 4 4.32 4 5 4 C5.13277344 4.63808594 5.26554688 5.27617187 5.40234375 5.93359375 C5.57894531 6.75988281 5.75554687 7.58617187 5.9375 8.4375 C6.11152344 9.26121094 6.28554687 10.08492187 6.46484375 10.93359375 C6.80752994 12.97661204 6.80752994 12.97661204 8 14 C7.979375 14.9075 7.95875 15.815 7.9375 16.75 C8.00064846 20.03371969 8.61579663 22.05856784 10 25 C9.34 25.33 8.68 25.66 8 26 C5.0740276 23.58289237 4.56822518 21.6934637 4 18 C3.67 17.34 3.34 16.68 3 16 C2.66666667 13.66666667 2.33333333 11.33333333 2 9 C1.37873059 5.98923285 0.69917493 2.9935548 0 0 Z " fill="#1E1E1F" transform="translate(213,126)"/>
<path d="M0 0 C2.1875 1.5 2.1875 1.5 4.1875 4.5 C3.1975 4.995 3.1975 4.995 2.1875 5.5 C0.5375 4.18 -1.1125 2.86 -2.8125 1.5 C-2.8125 2.49 -2.8125 3.48 -2.8125 4.5 C-4.1325 4.5 -5.4525 4.5 -6.8125 4.5 C-7.1425 6.15 -7.4725 7.8 -7.8125 9.5 C-8.8025 9.5 -9.7925 9.5 -10.8125 9.5 C-11.8025 10.985 -11.8025 10.985 -12.8125 12.5 C-13.8025 12.83 -14.7925 13.16 -15.8125 13.5 C-15.85375 14.263125 -15.895 15.02625 -15.9375 15.8125 C-16.8125 18.5 -16.8125 18.5 -19.875 20.3125 C-20.844375 20.704375 -21.81375 21.09625 -22.8125 21.5 C-21.37122868 16.96790985 -18.83083168 13.90370925 -15.625 10.5 C-15.13177246 9.97325684 -14.63854492 9.44651367 -14.13037109 8.90380859 C-4.83002124 -0.85867044 -4.83002124 -0.85867044 0 0 Z " fill="#272829" transform="translate(174.8125,128.5)"/>
<path d="M0 0 C5.88250944 0.58928478 8.08383996 3.85936367 11.76953125 8.15625 C14.90827649 12.15801276 18.01310022 16.2919114 20 21 C19.67 21.99 19.34 22.98 19 24 C17.2925002 22.71937515 15.62626404 21.38232443 14 20 C14 19.34 14 18.68 14 18 C13.67 17.01 13.34 16.02 13 15 C11.68 15 10.36 15 9 15 C9.20625 14.38125 9.4125 13.7625 9.625 13.125 C9.74875 12.42375 9.8725 11.7225 10 11 C9.34 10.34 8.68 9.68 8 9 C8 8.01 8 7.02 8 6 C7.01 6 6.02 6 5 6 C4.34 5.01 3.68 4.02 3 3 C2.01 2.67 1.02 2.34 0 2 C0 1.34 0 0.68 0 0 Z " fill="#141415" transform="translate(192,106)"/>
<path d="M0 0 C0.33 0.99 0.66 1.98 1 3 C1.99 3.33 2.98 3.66 4 4 C4 5.32 4 6.64 4 8 C4.66 8 5.32 8 6 8 C8.05257931 11.44833324 9.0632763 13.31661591 8.6875 17.375 C8.460625 18.24125 8.23375 19.1075 8 20 C6.93009727 17.87491798 5.87775193 15.74427699 4.8515625 13.59765625 C2.61704731 8.97918378 0.46302694 4.84780771 -3 1 C-2.01 0.67 -1.02 0.34 0 0 Z " fill="#131415" transform="translate(180,128)"/>
<path d="M0 0 C3.65316671 1.24976756 4.78065836 1.67098753 7 5 C6.01 5.495 6.01 5.495 5 6 C3.35 4.68 1.7 3.36 0 2 C0 2.99 0 3.98 0 5 C-1.32 5 -2.64 5 -4 5 C-4.33 6.65 -4.66 8.3 -5 10 C-5.66 9.67 -6.32 9.34 -7 9 C-5.64978174 4.58110387 -3.73884332 2.65654657 0 0 Z " fill="#2B2B2C" transform="translate(172,128)"/>
<path d="M0 0 C0.99 0 1.98 0 3 0 C3.66 1.65 4.32 3.3 5 5 C3.68 5.33 2.36 5.66 1 6 C0.34 4.35 -0.32 2.7 -1 1 C-0.67 0.67 -0.34 0.34 0 0 Z M-4 3 C-0.125 4.75 -0.125 4.75 1 7 C-0.65 6.67 -2.3 6.34 -4 6 C-4 5.01 -4 4.02 -4 3 Z " fill="#040406" transform="translate(179,122)"/>
<path d="M0 0 C0.99 0.33 1.98 0.66 3 1 C2.67 5.95 2.34 10.9 2 16 C1.34 15.67 0.68 15.34 0 15 C0 10.05 0 5.1 0 0 Z " fill="#282A29" transform="translate(170,234)"/>
<path d="M0 0 C0.66 0 1.32 0 2 0 C2.86627399 1.59766103 3.71766465 3.20339944 4.5625 4.8125 C5.27599609 6.15248047 5.27599609 6.15248047 6.00390625 7.51953125 C7 10 7 10 6 13 C0 5.8 0 5.8 0 0 Z " fill="#202020" transform="translate(95,177)"/>
<path d="M0 0 C3.43927579 1.2419607 6.25207819 2.55740284 9 5 C9 5.66 9 6.32 9 7 C7.35 7 5.7 7 4 7 C4 6.34 4 5.68 4 5 C2.68 4.67 1.36 4.34 0 4 C0 2.68 0 1.36 0 0 Z " fill="#131314" transform="translate(238,128)"/>
<path d="M0 0 C1.13199353 0.9080162 2.25532363 1.82683826 3.375 2.75 C4.00148437 3.26046875 4.62796875 3.7709375 5.2734375 4.296875 C7.08312318 6.08199481 8.00117455 7.67949644 9 10 C3.25 8.25 3.25 8.25 1 6 C1 5.34 1 4.68 1 4 C0.68521554 2.66216607 0.35412344 1.32796291 0 0 Z " fill="#030304" transform="translate(247,134)"/>
<path d="M0 0 C0.95837449 3.04626176 1.01658162 5.09213636 0.25 8.1875 C0.01023437 9.22970703 0.01023437 9.22970703 -0.234375 10.29296875 C-0.61335938 11.13794922 -0.61335938 11.13794922 -1 12 C-1.99 12.33 -2.98 12.66 -4 13 C-3.55966813 7.80408388 -3.11696661 4.33664919 0 0 Z " fill="#18191A" transform="translate(95,132)"/>
<path d="M0 0 C2.64 1.98 5.28 3.96 8 6 C7.34 7.32 6.68 8.64 6 10 C3 8 3 8 2 5 C0.50014391 3.33289654 0.50014391 3.33289654 -1 2 C-0.67 1.34 -0.34 0.68 0 0 Z " fill="#272828" transform="translate(180,205)"/>
<path d="M0 0 C1.31223496 3.93670488 0.24296256 6.12488144 -1 10 C-2.32 10 -3.64 10 -5 10 C-4.55090939 8.51800098 -4.09043436 7.03944764 -3.625 5.5625 C-3.36976563 4.73878906 -3.11453125 3.91507813 -2.8515625 3.06640625 C-2 1 -2 1 0 0 Z " fill="#262627" transform="translate(188,164)"/>
<path d="M0 0 C0 3 0 3 -1.0625 4.5625 C-3.81271494 6.60298205 -6.70559704 7.1919389 -10 8 C-8.76736651 4.30209954 -7.79947549 4.0645154 -4.4375 2.3125 C-3.61121094 1.87550781 -2.78492188 1.43851563 -1.93359375 0.98828125 C-1.29550781 0.66214844 -0.65742188 0.33601562 0 0 Z " fill="#010202" transform="translate(228,209)"/>
<path d="M0 0 C2.22825644 2.22825644 2.69239369 3.65761628 3.625 6.625 C3.88539063 7.44226563 4.14578125 8.25953125 4.4140625 9.1015625 C4.60742188 9.72804687 4.80078125 10.35453125 5 11 C1.83180047 9.65141812 1.16057091 9.35937299 -0.3125 6.0625 C-1 3 -1 3 0 0 Z " fill="#2B2C2C" transform="translate(263,154)"/>
<path d="M0 0 C0 0.99 0 1.98 0 3 C-3.63 3 -7.26 3 -11 3 C-11.33 2.34 -11.66 1.68 -12 1 C-7.9472484 0.01751476 -4.16138263 -0.08159574 0 0 Z " fill="#2D2D2F" transform="translate(160,118)"/>
<path d="M0 0 C0.66 0.33 1.32 0.66 2 1 C2 3 2 3 0.75 4.5625 C-1.17692483 6.14533111 -2.56795851 6.5806825 -5 7 C-3.70700306 4.11562221 -2.34058637 2.12780579 0 0 Z M-6 7 C-6 10 -6 10 -6 10 Z " fill="#212122" transform="translate(106,113)"/>
<path d="M0 0 C0.66 0.33 1.32 0.66 2 1 C1.01 2.485 1.01 2.485 0 4 C-0.66 4 -1.32 4 -2 4 C-2.33 4.66 -2.66 5.32 -3 6 C-3.99 6.66 -4.98 7.32 -6 8 C-6.33 7.01 -6.66 6.02 -7 5 C-4.69 3.35 -2.38 1.7 0 0 Z " fill="#202122" transform="translate(120,100)"/>
<path d="M0 0 C0 0.99 0 1.98 0 3 C-2.88415883 4.44207941 -5.41721528 4.09394887 -8.625 4.0625 C-9.81351563 4.05347656 -11.00203125 4.04445312 -12.2265625 4.03515625 C-13.14179688 4.02355469 -14.05703125 4.01195312 -15 4 C-15 3.67 -15 3.34 -15 3 C-11.37 3 -7.74 3 -4 3 C-4 2.34 -4 1.68 -4 1 C-2.68 0.67 -1.36 0.34 0 0 Z " fill="#000201" transform="translate(216,215)"/>
<path d="M0 0 C0.33 0.99 0.66 1.98 1 3 C1.99 3.33 2.98 3.66 4 4 C4 5.32 4 6.64 4 8 C3.34 8 2.68 8 2 8 C0.7109375 6.46875 0.7109375 6.46875 -0.625 4.5 C-1.29402344 3.52546875 -1.29402344 3.52546875 -1.9765625 2.53125 C-2.31429687 2.0259375 -2.65203125 1.520625 -3 1 C-2.01 0.67 -1.02 0.34 0 0 Z " fill="#2E2F31" transform="translate(180,128)"/>
<path d="M0 0 C3.93673644 1.31224548 6.22719294 2.91910327 9 6 C5.65626525 5.44271087 2.96687001 4.64826111 0 3 C0 2.01 0 1.02 0 0 Z " fill="#242424" transform="translate(166,120)"/>
<path d="M0 0 C0.33 0.66 0.66 1.32 1 2 C0.33333333 3.66666667 -0.33333333 5.33333333 -1 7 C-0.67 7.66 -0.34 8.32 0 9 C-2.475 8.01 -2.475 8.01 -5 7 C-1.125 1.125 -1.125 1.125 0 0 Z " fill="#000101" transform="translate(239,196)"/>
<path d="M0 0 C3.67420866 0.30618405 4.78135513 0.75771784 7.3125 3.5625 C8.1478125 4.7690625 8.1478125 4.7690625 9 6 C7.68 6 6.36 6 5 6 C4.34 5.01 3.68 4.02 3 3 C2.01 2.67 1.02 2.34 0 2 C0 1.34 0 0.68 0 0 Z " fill="#3D3E3D" transform="translate(192,106)"/>
<path d="M0 0 C0.33 0.66 0.66 1.32 1 2 C-4.41538462 5.07692308 -4.41538462 5.07692308 -7.375 4.6875 C-7.91125 4.460625 -8.4475 4.23375 -9 4 C-6.06171403 1.49701566 -3.82097239 0.53069061 0 0 Z " fill="#191A1B" transform="translate(237,236)"/>
<path d="M0 0 C1.32 1.32 2.64 2.64 4 4 C3.67 4.99 3.34 5.98 3 7 C2.01 6.67 1.02 6.34 0 6 C-0.38218767 4.34385343 -0.71395102 2.67542976 -1 1 C-0.67 0.67 -0.34 0.34 0 0 Z " fill="#272729" transform="translate(219,145)"/>
<path d="M0 0 C0.66 0 1.32 0 2 0 C2 1.32 2 2.64 2 4 C0.02 4.99 -1.96 5.98 -4 7 C-2.92598892 4.08482708 -2.22189824 2.22189824 0 0 Z " fill="#1B1B1B" transform="translate(156,143)"/>
<path d="M0 0 C1.32 0.66 2.64 1.32 4 2 C3.01 2.66 2.02 3.32 1 4 C1 4.33 1 4.66 1 5 C-0.98 5 -2.96 5 -5 5 C-3.35 3.35 -1.7 1.7 0 0 Z " fill="#141516" transform="translate(147,264)"/>
<path d="M0 0 C1.98 0.99 1.98 0.99 4 2 C3.01 3.98 2.02 5.96 1 8 C0.67 8 0.34 8 0 8 C0 5.36 0 2.72 0 0 Z " fill="#010204" transform="translate(188,151)"/>
<path d="M0 0 C2 1 2 1 2 1 Z M-2 1 C-1.34 1.33 -0.68 1.66 0 2 C-2.31 3.65 -4.62 5.3 -7 7 C-7.66 6.67 -8.32 6.34 -9 6 C-4.25 2.125 -4.25 2.125 -2 1 Z " fill="#000000" transform="translate(130,95)"/>
<path d="M0 0 C1.98 0 3.96 0 6 0 C4.35 1.65 2.7 3.3 1 5 C0.34 4.67 -0.32 4.34 -1 4 C-0.67 2.68 -0.34 1.36 0 0 Z " fill="#131316" transform="translate(132,123)"/>
<path d="M0 0 C0.33 0.99 0.66 1.98 1 3 C-0.65 4.32 -2.3 5.64 -4 7 C-4.66 6.67 -5.32 6.34 -6 6 C-4.02 4.02 -2.04 2.04 0 0 Z " fill="#000000" transform="translate(112,106)"/>
<path d="M0 0 C0.99 0.33 1.98 0.66 3 1 C2.6875 2.875 2.6875 2.875 2 5 C1.01 5.66 0.02 6.32 -1 7 C-0.67 4.69 -0.34 2.38 0 0 Z " fill="#1F2121" transform="translate(145,163)"/>
<path d="M0 0 C0.66 0.33 1.32 0.66 2 1 C1.60196439 3.88575819 1.20990931 4.82189513 -1.0625 6.75 C-1.701875 7.1625 -2.34125 7.575 -3 8 C-1.125 2.25 -1.125 2.25 0 0 Z " fill="#3C3C3E" transform="translate(150,151)"/>
</svg>
